# xmcd
#
# Track frame offsets:
#	150
#	18966
#	35397
#	56838
#	65715
#	87979
#	101464
#	120752
#	134806
#	151423
#	155816
#	170525
#	193241
#	206128
#
# Disc length: 2910 seconds
#
# Revision: 1
# Processed by: cddbd v1.5.1PL2 Copyright (c) Steve Scherf et al.
# Submitted via: audiograbber 1.83.01
#
DISCID=c80b5c0e
DTITLE=Aidan Bartley - Vaudeville
DYEAR=2005
DGENRE=
TTITLE0=Jamexico
TTITLE1=Maps and Clocks
TTITLE2=Vaudeville
TTITLE3=The Wrong Room
TTITLE4=Just the Ticket
TTITLE5=Ghost Boat
TTITLE6=Boy
TTITLE7=Mr. Big
TTITLE8=Sleep On It
TTITLE9=Drehorgel
TTITLE10=The Tree
TTITLE11=Profit
TTITLE12=Lullaby #2
TTITLE13=Closing
EXTD=
EXTT0=
EXTT1=
EXTT2=
EXTT3=
EXTT4=
EXTT5=
EXTT6=
EXTT7=
EXTT8=
EXTT9=
EXTT10=
EXTT11=
EXTT12=
EXTT13=
PLAYORDER=
